<?xml version="1.0" encoding="UTF-8" standalone="no"?>
<!-- Created with Inkscape (http://www.inkscape.org/) -->

<svg
   version="1.1"
   id="svg1"
   width="308.48767"
   height="121.44437"
   viewBox="0 0 308.48767 121.44437"
   sodipodi:docname="hands.svg"
   inkscape:version="1.3 (0e150ed, 2023-07-21)"
   xmlns:inkscape="http://www.inkscape.org/namespaces/inkscape"
   xmlns:sodipodi="http://sodipodi.sourceforge.net/DTD/sodipodi-0.dtd"
   xmlns="http://www.w3.org/2000/svg"
   xmlns:svg="http://www.w3.org/2000/svg">
  <defs
     id="defs1" />
  <sodipodi:namedview
     id="namedview1"
     pagecolor="#ffffff"
     bordercolor="#000000"
     borderopacity="0.25"
     inkscape:showpageshadow="2"
     inkscape:pageopacity="0.0"
     inkscape:pagecheckerboard="0"
     inkscape:deskcolor="#d1d1d1"
     inkscape:zoom="1.1809258"
     inkscape:cx="168.93526"
     inkscape:cy="5.0807596"
     inkscape:window-width="1728"
     inkscape:window-height="1051"
     inkscape:window-x="2560"
     inkscape:window-y="38"
     inkscape:window-maximized="1"
     inkscape:current-layer="g1" />
  <g
     inkscape:groupmode="layer"
     inkscape:label="Image"
     id="g1"
     transform="translate(-5.7561708,-66.317818)">
    <path
       style="fill:#000000"
       d="m 149.90103,187.16805 c -0.55743,-0.55743 -0.55273,-0.9682 0.0738,-6.44246 l 0.19493,-1.70328 -1.0868,0.18325 c -5.07784,0.85617 -17.44428,1.07561 -20.77868,0.36872 -3.00762,-0.63762 -7.30599,-2.37133 -13.22215,-5.33307 -7.3166,-3.66282 -9.4215,-4.86776 -29.485961,-16.8791 -20.343782,-12.17855 -17.532682,-10.89773 -34.079998,-15.52787 -8.220168,-2.3001 -33.949434,-9.30234 -43.1200002,-11.73513 -1.452,-0.38519 -2.64,-0.82858 -2.64,-0.9853 0,-0.15671 0.11568,-0.28494 0.257066,-0.28494 0.222201,0 20.1743782,5.33354 31.1029342,8.31431 8.380297,2.28574 23.134907,6.44407 26.673766,7.51755 3.704428,1.12369 4.213079,1.40198 21.600002,11.81762 23.995831,14.37471 32.918811,19.18286 40.529391,21.83925 2.52659,0.88188 2.64771,0.89234 10.23684,0.88466 6.34392,-0.006 13.72305,-0.46977 14.14124,-0.88796 0.0539,-0.0539 0.21827,-0.74165 0.36523,-1.5283 l 0.2672,-1.43028 -1.83573,0.13279 c -1.656,0.11978 -1.88217,0.0587 -2.31006,-0.62343 -0.67869,-1.08201 -0.87239,-3.44272 -0.60881,-7.41985 0.14802,-2.2335 0.11436,-3.5551 -0.0948,-3.72116 -0.17837,-0.14164 -3.06031,-1.66437 -6.40431,-3.38384 -3.344,-1.71948 -6.56212,-3.57296 -7.15139,-4.11884 -0.58926,-0.54589 -2.60266,-2.86452 -4.47423,-5.15252 -6.88019,-8.41108 -7.36194,-8.88238 -10.24298,-10.02087 -3.94174,-1.55763 -5.94362,-1.98921 -10.2114,-2.20145 -4.39697,-0.21866 -4.55006,-0.33122 -3.07715,-2.2623 0.98689,-1.29389 3.01137,-2.30424 4.59715,-2.29431 2.45735,0.0154 5.84549,1.8743 9.42975,5.17365 1.28744,1.18509 2.7258,2.30109 3.19635,2.48 2.24283,0.85272 5.99832,-0.0932 10.05867,-2.53355 2.70052,-1.62306 4.84432,-3.26247 10.33027,-7.89981 1.70227,-1.43895 3.7552,-3.07047 4.56206,-3.62561 0.86359,-0.59416 1.74519,-1.56184 2.14327,-2.35254 0.37193,-0.73877 1.15042,-2.01004 1.72998,-2.82505 l 1.05375,-1.48184 -3.41205,-1.31382 c -5.82686,-2.24365 -6.46983,-2.96872 -4.43608,-5.00247 2.2275,-2.2275 4.72907,-2.21788 13.68111,0.0526 5.31125,1.34709 8.49389,1.49004 13.26579,0.59587 3.81162,-0.71423 9.93987,-2.5981 11.60313,-3.56688 2.71379,-1.58067 5.1937,-5.84069 5.3043,-9.11175 0.089,-2.6334 -1.01246,-3.01832 -5.8703,-2.05144 -1.32,0.26273 -4.78096,0.57192 -7.69101,0.68709 -6.25165,0.24743 -7.61522,0.0148 -15.32055,-2.613993 -6.52623,-2.226509 -13.54792,-3.448583 -20.02844,-3.485801 -4.32188,-0.02482 -4.55906,0.0088 -6.72,0.952536 -1.232,0.538046 -3.608,1.850379 -5.28,2.916295 -6.16446,3.929903 -10.08041,5.534213 -19.45685,7.971223 -4.35169,1.13104 -6.44125,1.50956 -9.023151,1.6345 -6.09404,0.29492 -5.78888,0.41292 -31.839998,-12.312325 C 33.124855,80.324728 5.9303478,66.781762 6.0761308,66.537241 c 0.088,-0.147601 0.233431,-0.243889 0.32318,-0.213972 0.08975,0.02992 11.1777492,5.48346 24.6400002,12.118986 51.325366,25.298205 58.456248,28.705475 61.659308,29.462015 3.51423,0.83004 7.751211,0.44758 14.443331,-1.30376 9.42948,-2.4677 12.88356,-3.87456 18.93418,-7.711954 6.92474,-4.391777 9.4832,-4.929421 18.14361,-3.812755 6.8946,0.888985 9.48687,1.463263 15.13639,3.353243 3.08,1.030377 6.60742,2.048806 7.8387,2.263176 2.93247,0.51055 10.41269,0.18977 14.91948,-0.6398 3.48661,-0.641775 4.51905,-0.601193 5.46368,0.21476 1.78064,1.53809 0.24499,7.37433 -2.76766,10.5185 l -1.34449,1.40319 9.14514,-0.003 c 15.63596,-0.005 22.15989,-0.50082 33.42881,-2.5394 5.27072,-0.95349 5.64889,-0.97754 15.37224,-0.97754 9.70229,0 15.61753,-0.28245 33.7841,-1.6132 10.81842,-0.79247 35.12765,-2.78708 37.2,-3.05232 0.95756,-0.12255 1.52,-0.0723 1.52,0.13589 0,0.45473 -0.8829,0.55387 -16.16,1.81469 -31.08222,2.56521 -39.48669,3.08633 -54.08,3.35321 -8.30138,0.15182 -14.73666,0.40578 -15.68,0.6188 -2.94839,0.66578 -10.84478,1.91747 -14.4,2.28261 -1.936,0.19883 -9.784,0.46151 -17.44,0.58372 -13.53309,0.21603 -13.96447,0.24234 -15.52,0.94656 -2.79404,1.26492 -3.86908,2.60792 -8.60836,10.75405 -1.53079,2.6312 -3.39596,5.5112 -4.14481,6.4 -1.17466,1.39417 -6.54096,9.00878 -8.34605,11.84277 -0.39335,0.61755 -1.46508,5.27724 -3.08211,13.40037 l -2.47907,12.4536 1.04643,1.63962 c 3.74976,5.8754 4.89392,11.44438 2.94535,14.33587 -1.72257,2.55611 -6.55421,4.11522 -8.06648,2.60294 z m 5.38326,-1.12653 c 3.73352,-2.06119 3.9402,-6.34034 0.62358,-12.91053 -0.52864,-1.04723 -1.24207,-2.25097 -1.5854,-2.67496 l -0.62424,-0.7709 -0.39176,1.57187 c -0.21547,0.86453 -0.65994,2.03029 -0.9877,2.59058 -0.64557,1.10356 -1.37393,4.60589 -1.93773,9.31763 -0.44382,3.70906 -0.25501,4.0627 2.02499,3.79266 0.85315,-0.10104 2.14837,-0.5134 2.87826,-0.91635 z m -4.62982,-11.69265 c 0.40634,-0.35049 0.83862,-1.42165 1.15545,-2.86317 0.76885,-3.49814 0.7228,-3.72475 -1.01379,-4.98817 -1.894,-1.37794 -3.45643,-2.18556 -3.71943,-1.92256 -0.39048,0.39048 -0.22172,9.54475 0.18343,9.9499 0.57393,0.57393 2.64968,0.4663 3.39434,-0.176 z m 4.21113,-19.57347 c 1.08317,-6.40941 2.16623,-12.03411 2.40681,-12.49934 0.59281,-1.14636 4.03065,-5.35718 6.96287,-8.52842 3.52576,-3.81316 7.57222,-10.90412 7.59325,-13.3063 0.008,-0.92005 -1.06667,-2.17247 -1.86425,-2.17247 -0.53556,0 -3.80238,2.4018 -7.57123,5.56645 -3.39877,2.8539 -10.13727,10.1408 -11.02928,11.92689 -0.78522,1.57225 -0.727,1.24425 -2.74115,15.44191 -1.61154,11.35968 -1.68152,12.38051 -0.86649,12.63973 0.308,0.098 1.496,0.81273 2.64,1.58837 1.144,0.77564 2.17452,1.3172 2.29004,1.20345 0.11552,-0.11374 1.09627,-5.45086 2.17943,-11.86027 z m 4.32003,-12.6865 c 0.50637,-0.86902 1.44524,-2.30003 2.08638,-3.18003 1.3919,-1.91047 1.69451,-2.4 1.48356,-2.4 -0.18177,0 -3.58557,4.16432 -4.57728,5.6 -0.50553,0.73184 -1.05865,3.27968 -2.32726,10.72 -2.28911,13.42543 -2.25603,13.61735 0.24475,1.42003 1.77445,-8.6547 2.33672,-10.8675 3.08985,-12.16 z m -11.82177,13.44414 c 0.43575,-3.00071 0.79227,-5.5604 0.79227,-5.68822 0,-0.12781 -0.44117,-0.004 -0.98038,0.27459 -0.5392,0.27883 -1.43592,0.46253 -1.9927,0.40822 -1.7252,-0.1683 -1.89706,-0.91542 -1.6789,-7.29876 0.32343,-9.46373 0.32949,-9.48988 3.21862,-13.88767 0.60261,-0.91728 0.6024,-0.92387 -0.0186,-0.58821 -0.34542,0.1867 -2.21204,1.67965 -4.14804,3.31765 -9.5429,8.07404 -14.32261,10.83823 -18.74094,10.83823 h -1.64114 l 0.91104,1.08755 c 0.50107,0.59815 2.73161,3.29815 4.95674,6 2.22514,2.70185 4.45714,5.30087 4.96,5.77561 0.50287,0.47474 3.7223,2.30481 7.1543,4.06684 l 6.24,3.20368 0.0877,-1.02684 c 0.0482,-0.56476 0.44424,-3.48196 0.88,-6.48267 z m -0.28228,-6.15128 c 1.13764,-0.91762 1.6024,-2.30052 2.01404,-5.99289 0.53612,-4.80894 0.89462,-6.48546 1.72967,-8.08888 1.64698,-3.16242 10.90557,-12.28427 16.63102,-16.38537 1.29472,-0.92741 1.44771,-1.13968 0.96,-1.33199 -1.39872,-0.55154 -4.31257,-0.24398 -8.15459,0.86072 -5.87792,1.69009 -7.10976,2.33052 -7.89436,4.10424 -0.35528,0.80317 -1.27441,2.14903 -2.0425,2.99079 -1.20078,1.31595 -4.27488,5.92365 -5.29095,7.93049 -0.3662,0.72326 -1.03778,8.76463 -1.03778,12.42604 0,3.13188 0.34537,4.0562 1.51208,4.04685 0.48836,-0.004 1.19637,-0.25592 1.57337,-0.56 z m -29.64545,-10.01749 c -3.103,-2.75244 -6.36858,-4.4554 -8.54361,-4.4554 -1.14471,0 -3.15394,1.14115 -3.93123,2.23276 l -0.68874,0.96724 2.34179,0.006 c 3.37747,0.009 6.40418,0.5157 9.35723,1.56604 1.42151,0.5056 2.65656,0.92852 2.74456,0.93981 0.088,0.0113 -0.488,-0.55427 -1.28,-1.25679 z m 33.64113,-15.7354 c 0.34788,-0.65287 0.33401,-0.67905 -0.14874,-0.28082 -0.29281,0.24155 -0.53239,0.56555 -0.53239,0.72 0,0.4888 0.28436,0.30545 0.68113,-0.43918 z m 22.68577,-3.45165 c 0.94141,-1.59041 2.18898,-3.4493 2.77238,-4.13087 0.58339,-0.68157 1.06072,-1.30272 1.06072,-1.38033 0,-0.34668 -5.21498,1.41391 -6.07795,2.05194 -1.16681,0.86265 -1.1856,1.02633 -0.17088,1.48866 1.17546,0.53558 1.42976,2.25309 0.637,4.30225 -0.48187,1.24559 0.1569,0.40825 1.77873,-2.33165 z m -19.91415,-0.27184 c 0.65299,-0.33191 2.69925,-1.05998 4.54725,-1.61793 1.848,-0.55794 3.576,-1.09339 3.84,-1.18989 0.60116,-0.21973 -10.29791,-2.87541 -12.97937,-3.16257 -1.59671,-0.171 -2.25025,-0.0909 -3.38003,0.41449 -1.82652,0.81698 -2.76968,1.85298 -2.32654,2.55551 0.34636,0.5491 7.56466,3.59195 8.53869,3.59946 0.31501,0.002 1.10701,-0.26715 1.76,-0.59907 z m 16.38725,-3.07651 c 0.45591,-0.54934 0.0931,-0.62456 -1.26286,-0.26187 -0.72506,0.19393 -0.73687,0.22739 -0.16,0.45314 0.89748,0.35122 0.98208,0.33984 1.42286,-0.19127 z m -9.83765,67.55201 c -1.24371,-1.58112 -1.30741,-6.5035 -0.20127,-15.55201 1.0939,-8.9484 4.34689,-23.93324 5.86998,-27.04 0.51771,-1.056 2.23615,-3.39675 3.81877,-5.20167 1.58262,-1.80492 4.45449,-5.47692 6.38192,-8.16 3.85599,-5.3677 5.18278,-6.82402 5.94915,-6.52994 0.2745,0.10534 0.4991,0.32711 0.4991,0.49283 0,0.46684 -1.92433,2.79636 -8.75524,10.59878 -4.21066,4.80951 -6.61948,7.83746 -7.2552,9.12 -0.59995,1.21036 -1.4792,4.22634 -2.37889,8.16 -2.85386,12.47777 -4.03333,20.45594 -4.11764,27.85242 -0.0461,4.04435 0.0244,4.77076 0.53913,5.55782 0.52442,0.80184 0.73479,0.88627 1.83914,0.73815 1.88168,-0.25239 4.12539,-2.0299 5.16224,-4.08963 1.13879,-2.26223 3.12687,-8.2746 4.58595,-13.86885 0.63837,-2.44755 2.06878,-6.69555 3.17871,-9.44 3.76611,-9.31228 3.15481,-8.4075 8.09556,-11.98215 1.50573,-1.0894 3.40112,-2.86326 4.53302,-4.24235 1.93707,-2.36014 3.93082,-4.06515 5.45322,-4.6635 0.8741,-0.34355 6.40049,0.11926 10.4898,0.87846 2.97602,0.55252 5.80753,2.06446 7.60011,4.05824 1.52634,1.69766 1.95798,3.03294 1.59899,4.94651 -0.58817,3.13522 -2.6075,5.19531 -6.0889,6.21181 -1.232,0.35972 -3.07749,1.00257 -4.10109,1.42855 -1.0236,0.42599 -2.03611,0.77452 -2.25002,0.77452 -0.54495,0 -3.87844,3.47481 -4.47436,4.66405 -0.2712,0.54123 -1.11442,1.54285 -1.87381,2.22582 -2.3218,2.08816 -6.2532,7.07339 -7.24588,9.18818 -1.95453,4.16389 -2.28066,8.25746 -0.8984,11.27672 1.40576,3.07058 3.65881,3.45342 6.82515,1.15973 0.70668,-0.51191 2.77972,-2.63709 4.60677,-4.72262 5.49327,-6.27046 13.12065,-13.69813 21.41164,-20.85102 6.88807,-5.94255 8.07059,-7.10294 9.73909,-9.55681 1.04449,-1.53616 2.37832,-3.32346 2.96405,-3.9718 0.6491,-0.71847 0.99077,-1.37212 0.87498,-1.67389 -0.12674,-0.33025 0.11164,-0.65052 0.71594,-0.9619 2.81754,-1.45178 13.89358,-4.10042 19.02989,-4.55066 3.87933,-0.34006 4.66778,-0.0821 9.38736,3.07161 4.40221,2.9416 6.24869,4.654 6.24869,5.79495 0,0.83633 -0.068,0.82857 -11.61947,-1.327 -9.17306,-1.71173 -16.67085,-2.88088 -18.49278,-2.88363 -1.08344,-0.002 -3.32367,0.58901 -3.09633,0.81635 0.45167,0.45168 23.13648,3.96756 55.69801,8.63256 12.85737,1.84203 23.44908,3.4212 23.53713,3.50926 0.0881,0.0881 0.08,0.24022 -0.0179,0.33815 -0.45132,0.45131 -78.84885,-11.19223 -79.95561,-11.87495 -0.34862,-0.21505 -2.74922,2.56368 -4.76281,5.51302 -1.78707,2.61756 -2.85982,3.67559 -9.88738,9.75173 -9.21496,7.96741 -13.11629,11.68799 -18.23258,17.38789 -6.20515,6.91296 -7.43108,8.1174 -9.11763,8.95784 -2.9978,1.49387 -4.97649,0.81215 -6.46331,-2.2268 -1.23528,-2.52482 -1.24975,-5.99359 -0.0398,-9.53271 1.0016,-2.9296 1.84934,-4.36269 4.47492,-7.56487 1.66088,-2.02562 1.82974,-2.34296 1.15973,-2.17959 -0.43131,0.10516 -1.72019,0.28042 -2.86419,0.38947 -3.6608,0.34895 -3.62355,0.32814 -2.53545,1.41624 0.76718,0.76718 0.93545,1.20459 0.93545,2.4317 0,0.82294 -0.2342,1.98981 -0.52045,2.59303 -0.72497,1.52775 -3.07309,3.50175 -5.04144,4.23821 -1.57402,0.58892 -8.75931,1.96174 -10.26766,1.96174 -0.58407,0 -0.86902,0.4097 -1.6136,2.32 -0.49735,1.276 -1.23557,2.84997 -1.6405,3.49771 -1.05604,1.68927 -3.41322,3.2148 -5.23837,3.39017 -1.31999,0.12684 -1.57264,0.0453 -2.15563,-0.69587 z m 14.15765,-9.6393 c 6.3359,-1.06752 8.22094,-1.79999 10.16222,-3.94876 1.79809,-1.99026 2.0483,-4.74752 0.53301,-5.87354 -1.30278,-0.96811 -3.0082,-1.18979 -7.56769,-0.9837 -3.71692,0.16801 -4.24754,0.26026 -4.24754,0.73846 0,0.51105 -2.25575,8.76401 -2.73186,9.99483 -0.27176,0.70256 0.0748,0.7091 3.85186,0.0727 z m 15.78283,-12.40434 c 2.25685,-0.41982 2.40619,-0.50541 4.06902,-2.33209 1.56146,-1.71534 2.38148,-3.30166 2.38637,-4.61643 0.001,-0.37218 -0.91574,-0.60843 -4.07822,-1.05053 -3.26514,-0.45646 -11.52258,-1.96206 -13.81466,-2.51887 -0.31976,-0.0777 -1.09999,1.45616 -2.62962,5.16955 -1.19624,2.904 -2.17964,5.47474 -2.18535,5.71275 -0.009,0.35612 1.22208,0.40076 6.94963,0.25209 3.828,-0.0994 8.01428,-0.37677 9.30283,-0.61647 z m 8.37717,-7.28801 c 0,-0.13224 -0.288,-0.16513 -0.64,-0.0731 -0.37594,0.0983 -0.64,0.43649 -0.64,0.81964 0,0.632 0.0199,0.63427 0.64,0.0731 0.352,-0.31855 0.64,-0.68739 0.64,-0.81964 z m -2.40824,-2.14036 c -1.03644,-2.50332 -2.91595,-3.11212 -8.87226,-2.87388 -3.87981,0.15519 -8.13919,0.76086 -7.79204,1.10801 0.37748,0.37747 14.21208,2.9048 16.11683,2.94425 l 1.0443,0.0216 z m 6.55704,0.0593 c 1.08633,-0.48751 2.42953,-1.41329 3.05498,-2.10559 0.92939,-1.02873 1.11622,-1.47852 1.11622,-2.68735 0,-2.83578 -2.44654,-5.78772 -5.5641,-6.71354 -1.83469,-0.54484 -7.10893,-0.61483 -10.748,-0.14263 -2.09153,0.2714 -2.48563,0.42991 -3.13649,1.26155 -0.40941,0.52314 -2.24727,2.04641 -4.08413,3.38504 -3.53417,2.57557 -5.18544,4.31017 -4.08907,4.29543 0.31998,-0.004 1.16577,-0.14273 1.87952,-0.30762 2.64186,-0.61032 7.97304,-0.94026 10.16862,-0.62932 3.18419,0.45093 4.50537,1.23783 5.3968,3.21434 l 0.73685,1.63375 1.66502,-0.167 c 0.91576,-0.0918 2.53746,-0.55852 3.60378,-1.03706 z m 6.79752,-2.54518 c 2.06302,-1.36523 3.39605,-4.25521 2.98165,-6.46413 -0.2471,-1.3172 -2.09002,-3.43475 -3.70738,-4.25986 -0.70122,-0.35773 -4.06996,-1.08023 -8.27112,-1.77391 l -7.08804,-1.17036 -1.208,0.83714 c -0.66439,0.46043 -1.68132,1.32549 -2.25982,1.92236 l -1.05184,1.08522 5.3941,-0.16979 c 4.39726,-0.13841 5.72359,-0.074 7.17701,0.34852 2.0836,0.60572 4.47668,2.54691 5.4205,4.39694 0.85547,1.67687 0.84884,4.40497 -0.0134,5.5011 -0.352,0.4475 -0.64,0.88886 -0.64,0.98082 0,0.34046 2.06734,-0.44059 3.26632,-1.23405 z m 56.84797,-6.44453 c -0.41486,-0.44258 -2.69829,-2.12429 -5.07429,-3.73713 l -4.32,-2.93243 -3.2,0.0482 c -3.27315,0.0493 -8.85961,1.00366 -13.96687,2.38611 l -2.67313,0.72357 4.48,0.56726 c 2.464,0.31199 7.288,1.09222 10.72,1.73384 11.08618,2.07259 14.55642,2.61953 14.67429,2.31276 0.0629,-0.1636 -0.22514,-0.65957 -0.64,-1.10215 z m -86.19827,-19.36959 c 0.85903,-1.111 1.19496,-1.68933 0.74653,-1.28519 -0.87463,0.78826 -3.15403,3.82783 -2.62561,3.50124 0.17447,-0.10783 1.02006,-1.10505 1.87908,-2.21605 z"
       id="path1"
       sodipodi:nodetypes="sscsssssssssssscsscsssssssssssssssssscsssssssssssssssssssssssssssccssssssssssssssscssssssscsssssssssssssscssssssssssssssssscsssssscssssccsssssssssssscscssccssccssssssssssssssscscssssssssssssssssssssssssssssssssssssssssssssscssscssssssssssssssssssssssssssssscssscssssssssssscsssssssscsssccssssscsscssssssssscsscsssssssss" />
  </g>
</svg>
